<?xml version="1.0" encoding="utf-8"?>
<!-- Generator: Adobe Illustrator 16.0.0, SVG Export Plug-In . SVG Version: 6.00 Build 0)  -->
<!DOCTYPE svg PUBLIC "-//W3C//DTD SVG 1.1//EN" "http://www.w3.org/Graphics/SVG/1.1/DTD/svg11.dtd">
<svg version="1.1" xmlns="http://www.w3.org/2000/svg" xmlns:xlink="http://www.w3.org/1999/xlink" x="0px" y="0px" width="200px"
	 height="53px" viewBox="0 0 200 53" enable-background="new 0 0 200 53" xml:space="preserve">
<g id="background">
</g>
<g id="boxs">
</g>
<g id="_x3D__x3D__x3D__x3E__guide">
</g>
<g id="Layer_1">
</g>
<g id="dots">
</g>
<g id="menu">
	<g>
		<polyline fill="#FFD200" points="168.856,9.321 142.583,9.321 142.583,17.913 151.427,17.913 151.427,43.681 160.017,43.681 
			160.017,17.913 168.856,17.913 		"/>
		<polyline fill="#FFD200" points="130.461,21.449 118.346,21.449 118.346,9.321 109.759,9.321 109.759,21.449 107.234,21.449 
			107.234,30.036 109.759,30.036 109.759,43.681 118.346,43.681 118.346,30.036 130.461,30.036 130.461,43.681 139.045,43.681 
			139.045,9.321 130.461,9.321 		"/>
		<polyline fill="#FFD200" points="87.542,30.036 103.698,30.036 103.698,21.449 87.519,21.449 87.519,17.908 104.2,17.913 
			104.2,9.327 78.942,9.327 78.942,43.675 104.708,43.675 104.708,35.083 87.542,35.083 		"/>
		<polyline fill="#FFD200" points="41.048,43.681 50.133,43.681 58.887,17.908 65.81,17.908 65.797,43.681 74.887,43.681 
			74.887,9.32 52.661,9.32 		"/>
		<path fill="#FFD200" d="M187.544,9.321h-10.602l-5.305,15.674h-5.804v8.568h2.908l-3.41,10.112h8.58l3.41-10.112h9.835
			l3.415,10.112h8.582 M180.228,24.995l2.018-5.951l2.016,5.951H180.228z"/>
		<g>
			<path fill="#FFD200" d="M41.048,18.087c0.184-0.875-2.778-3.183-5.053-3.868c-0.351-0.099,3.472-1.946,3.471-2.71
				c0.025-1.775-3.822-3.224-7.854-3.156c-0.357,0.012-0.074-1.951-0.961-3.774c-0.68-1.113-0.819-1.345-4.905,0.253
				c-0.477-1.599-2.456-6.687-6.207-1.799c-0.61-0.747-1.079-1.779-2.235-2.3c-0.362,0.257-1.117,1.109-1.823,2.24
				c-0.853-0.5-2.662-1.67-4.274-1.47c-0.264,0.201-0.327,1.179-0.472,2.697c-0.312,0.058-2.546-0.691-4.253-0.243
				C6.41,4.223,7.185,5.965,7.752,6.754C6.505,6.685,4.315,7.387,3.739,7.936c0.029,0.316,0.06,1.338,2.714,3.418
				c-1.492,0.421-2.841,1.714-2.89,2.034c-0.274,1.741,3.171,3.603,4.026,4.083c-0.855,1.551-1.51,3.685-1.107,4.492
				c1.745,1.387,3.73,1.598,5.233,1.437c-0.155,0.389-0.225,0.741-0.247,0.947c-0.009,0.069-0.021,0.14-0.021,0.208
				c-0.051,0.394-0.281,1.055-0.41,1.302c-0.161,0.331-0.161,0.519-0.157,0.705v0.02l0.013,0.005
				c0.091,0.766,1.927,1.391,3.311,1.391c0.281,0,1.027,0,1.385-0.049h0.008c1.688-0.28,2.726-0.654,3.404-1.125
				c0.263-0.173,0.417-0.318,0.54-0.436c0.595,1.119,2.087,3.01,5.85,4.539c0.546-0.374,1.804-2.653,1.858-2.865
				c0.438,0.53,3.285,2.476,5.565,2.031c1.029-0.844,0.876-4.608,0.876-4.608s2.204,0.81,3.775,0.666
				c0.455-0.044,1.136-0.065,1.382-0.758c0.108-0.252,0.241-1.414-0.022-2.423c-0.324-1.266-1.914-2.688-1.89-2.711
				C36.941,20.212,39.613,19.9,41.048,18.087"/>
			<path fill="#4AA22D" d="M31.419,38.775c-4.97-4.114-8.918-1.065-9.866-0.542c-1.606,1.004-2.704,1.989-3.491,2.941
				c0.47-2.335,1.222-5.615,1.414-6.865c0.271-1.643,1.006-6.254-0.008-6.784c-0.261-0.09-0.305-0.121-0.4,0.822
				c0,0-0.105,1.866-1.611,6.29c-0.612,2.045-0.999,3.083-1.328,4.066c-0.488-1.751-1.811-3.854-4.959-6.047
				c-0.941-0.551-4.893-3.923-9.873,0.637c-0.42,0.459-0.854,1.227,0.24,1.891c1.08,0.664,1.436,1.066,1.724,1.88
				c0.271,0.827,1.469,3.664,5.483,3.995c4.098,0.324,4.928,0.896,5.611,1.459c0,0,0.377,0.363,0.739,0.573
				c-0.015,0.091-0.036,0.184-0.045,0.284c0,0-0.597,5.208,0.737,7.216c1.483,2.221,3.053,1.591,3.053,1.591
				s-1.01-1.548-1.305-4.431c0.396-0.182,0.862-0.582,0.862-0.582c0.865-0.686,1.52-1.032,5.593-1.35
				c4.014-0.293,5.214-2.87,5.485-3.6c0.272-0.75,0.626-1.111,1.71-1.725C32.283,39.903,31.837,39.195,31.419,38.775"/>
			<polyline fill="#222E80" points="31.161,18.148 30.318,16.887 30.96,15.911 29.7,14.82 29.853,13.62 28.321,12.785 
				27.956,11.509 26.274,10.992 25.416,9.765 23.782,9.647 22.527,8.564 21.074,8.861 19.539,8.044 18.441,8.706 16.775,8.215 
				16.115,9.188 14.484,9.101 14.327,10.28 12.896,10.599 13.263,11.88 12.17,12.551 13.002,13.807 12.355,14.787 13.608,15.907 
				13.468,17.08 15.014,17.913 15.382,19.195 17.044,19.699 17.899,20.944 19.539,21.056 20.806,22.139 22.239,21.833 
				23.782,22.664 24.88,21.999 26.551,22.487 27.213,21.509 28.847,21.599 29,20.423 30.425,20.11 30.073,18.825 			"/>
			<path fill="#222E80" d="M18.201,44.243c3.296-3.813,11.558-4.81,11.558-4.81C22.636,38.539,19.681,41.789,18.201,44.243"/>
			<path fill="#222E80" d="M2.828,34.115c0,0,6.181-0.117,11.559,5.286C12.903,36.694,9.289,32.926,2.828,34.115"/>
		</g>
	</g>
</g>
<g id="_x2D_--temp">
</g>
</svg>
