<?xml version="1.0" encoding="utf-8"?>
<!-- Generator: Adobe Illustrator 16.0.0, SVG Export Plug-In . SVG Version: 6.00 Build 0)  -->
<!DOCTYPE svg PUBLIC "-//W3C//DTD SVG 1.1//EN" "http://www.w3.org/Graphics/SVG/1.1/DTD/svg11.dtd">
<svg version="1.1" xmlns="http://www.w3.org/2000/svg" xmlns:xlink="http://www.w3.org/1999/xlink" x="0px" y="0px" width="288px"
	 height="162px" viewBox="0 0 288 162" enable-background="new 0 0 288 162" xml:space="preserve">
<g id="background">
</g>
<g id="boxs">
</g>
<g id="_x3D__x3D__x3D__x3E__guide">
</g>
<g id="Layer_1">
</g>
<g id="dots">
</g>
<g id="menu">
	<g>
		<path fill-rule="evenodd" clip-rule="evenodd" fill="#FF9300" d="M287.624,0c-34.357,0-39.524,0.721-41.859,25.947
			c-2.335,25.224-9.793,94.049-11.548,108.111c-1.755,14.062-9.133,25.946-27.426,25.946s-107.288,0-125.581,0
			s-25.671-11.884-27.426-25.946c-1.756-14.061-9.213-82.886-11.549-108.111C39.903,0.721,34.735,0,0.376,0h3.157"/>
		<g>
			<g>
				<path fill="#FFFFFF" d="M93.821,32.308c-4.169,0-7.997,3.615-7.997,7.785c0,8.582,10.857,9.823,10.857,14.852
					c0,2.93-2.24,3.377-3.447,3.377c-2.234,0-3.953-1.946-4.93-3.205c-0.08-0.104-0.342-0.185-0.564,0.021
					c-0.752,0.681-1.85,1.668-2.33,2.098c-0.149,0.135-0.188,0.314-0.082,0.48c0.623,0.983,3.139,4.331,8.423,4.331
					c6.652,0,8.34-5.447,8.34-7.308c0-8.235-11.025-8.235-11.025-14.851c0-2.93,2.239-3.826,2.858-3.826
					c0.621,0,1.567,0.188,2.001,0.705c-0.611,0.421-0.708,1.432-0.708,1.914c0,0.481,0.109,3.206,2.619,3.206
					c2.086,0,2.447-2.5,2.447-3.655C100.283,37.078,99.231,32.308,93.821,32.308"/>
				<path fill="#FFFFFF" d="M103.923,32.476h3.966c0.871,0,0.999,0.722,0.999,0.722l4.782,19.062l4.644-16.978
					c0,0,0.163-0.67,0.714-0.681c0.668-0.016,2.221-0.048,2.961-0.075c0.449-0.018,0.48,0.342,0.48,0.342l3.883,17.392l5.869-18.622
					c0,0,0.099-0.394,0.559-0.396c0.788-0.006,2.649,0.013,3.503,0.022c0.441,0.007,0.328,0.371,0.328,0.371l-8.657,27.428
					c0,0-0.094,0.334-0.463,0.329c-0.647-0.004-2.499,0.014-2.499,0.014s-0.392,0.035-0.515-0.426
					c-0.615-2.332-3.507-13.686-4.428-17.089c-0.032-0.124-0.24-0.195-0.309,0.016c-0.977,3.105-5.355,17.248-5.355,17.248
					s-0.06,0.305-0.404,0.305h-2.316c-0.449,0-0.572-0.461-0.572-0.461l-7.817-27.862C103.276,33.137,103.082,32.476,103.923,32.476
					"/>
				<path fill="#FFFFFF" d="M139.525,32.802c2.936,0.081,13.613,0.293,15.906,0.338c0.467,0.012,0.439,0.369,0.439,0.369l0.02,2.774
					c0,0,0.047,0.848-0.768,0.828c-2.51-0.066-10.629-0.226-10.629-0.226l0.121,8.112l9.273,0.209c0,0,0.769-0.018,0.756,0.891
					c-0.007,0.492-0.002,1.579-0.006,2.318c-0.001,0.779-0.607,0.74-0.607,0.74l-9.33-0.201l0.102,8.398l11.777-0.405
					c0,0,0.625-0.076,0.584,0.63c-0.035,0.561-0.09,1.871-0.152,2.72c-0.059,0.853-0.793,0.815-0.793,0.815l-15.63,0.436
					c0,0-0.679,0.077-0.722-0.81c-0.258-5.182-1.105-27.203-1.105-27.203S138.711,32.779,139.525,32.802"/>
				<path fill="#FFFFFF" d="M160.878,32.593c2.934,0.088,13.612,0.327,15.902,0.376c0.468,0.011,0.442,0.368,0.442,0.368
					l0.012,2.774c0,0,0.045,0.849-0.771,0.83c-2.508-0.073-10.628-0.254-10.628-0.254l0.1,8.115l9.275,0.232
					c0,0,0.77-0.02,0.754,0.889c-0.008,0.49-0.006,1.578-0.012,2.319c-0.002,0.78-0.611,0.737-0.611,0.737l-9.326-0.223l0.082,8.403
					l11.778-0.381c0,0,0.625-0.072,0.58,0.633c-0.033,0.56-0.092,1.868-0.153,2.719c-0.062,0.852-0.794,0.809-0.794,0.809
					l-15.632,0.403c0,0-0.681,0.076-0.723-0.812c-0.245-5.182-1.04-27.205-1.04-27.205S160.063,32.567,160.878,32.593"/>
				<path fill="#FFFFFF" d="M179.274,33.529c-0.002,0.487-0.015,1.654-0.023,2.305c-0.006,0.456,0.442,0.456,0.442,0.456
					l8.168,0.088l1.059,24.051c0,0,0.048,0.951,0.798,0.958c0.951,0.013,2.711,0.029,3.645,0.042
					c0.988,0.012,0.888-1.024,0.888-1.024L193.1,36.296l7.752-0.456c0,0,1.045-0.036,1.011-0.877
					c-0.023-0.612-0.075-2.038-0.075-2.038s0.021-0.701-0.848-0.679c-4.865,0.144-20.974,0.637-20.974,0.637
					S179.283,32.877,179.274,33.529"/>
				<path fill="#FFFFFF" d="M96.293,121.689v-20.718c0,0,9.321-0.831,9.321,9.179C105.614,120.684,96.293,121.689,96.293,121.689
					 M96.293,76.985c3.672,0,8.652,1.61,8.652,6.886c0,9.342-8.652,10.588-8.652,10.588V76.985z M107.196,96.62
					c3.357-2.293,7.335-6.532,7.335-13.481c0-6.951-6.996-11.978-17.092-11.978c-3.189,0-7.679,0.058-9.703,0.074
					c-1.113,0.01-1.041,1.141-1.041,1.141l1.082,53.574c0,0,0.01,1.166,0.983,1.171c1.828,0.008,7.021,0.086,8.809-0.016
					c2.296-0.131,18.555-2.425,18.555-18.027C116.124,98.719,107.196,96.62,107.196,96.62"/>
				<path fill="#FFFFFF" d="M178.353,69.414l8.444,19.012l6.752-16.95c0,0,0.375-0.792,1.154-0.467
					c1.569,0.657,5.125,2.148,6.736,2.842c0.838,0.357,0.358,1.295,0.358,1.295l-10.216,20.494l13.761,25.586
					c0,0,0.252,0.447-0.124,0.757c-1.253,1.037-5.435,4.349-6.982,5.517c-0.918,0.692-1.343-0.228-1.343-0.228l-9.639-21.735
					l-9.328,19.718c0,0-0.312,0.729-1.075,0.53c-1.735-0.445-6.16-1.53-7.578-1.866c-1.075-0.255-0.56-1.264-0.56-1.264
					l13.996-25.814L170.98,75.097c0,0-0.387-0.7,0.301-1.251c1.477-1.195,4.782-3.865,5.814-4.668
					C177.961,68.504,178.353,69.414,178.353,69.414"/>
				<path fill="#FFFFFF" d="M150.917,118.735c-3.433,0.245-12.149,0.862-15.874,1.037c-1.503,0.073-1.682-1.495-1.682-1.495
					l-1.981-37.73c0,0-0.116-1.56,1.229-1.644c4.015-0.251,15.663-1.009,20.069-1.131c1.86-0.051,1.63,1.532,1.63,1.532
					l-1.238,37.355C153.069,116.659,152.934,118.591,150.917,118.735 M121.858,74.675l1.878,49.681c0,0,0.105,2.184,2.212,2.122
					c6.894-0.211,27.118-0.845,34.029-0.92c2.411-0.024,2.454-2.376,2.454-2.376l1.884-50.228c0,0-0.003-1.682-2.234-1.63
					c-7.419,0.173-30.796,1.223-38.188,1.48C121.854,72.872,121.858,74.675,121.858,74.675"/>
			</g>
			<g>
				<path fill="#FFFFFF" d="M227.677,71.782c2.345,2.528,3.518,5.605,3.518,9.232c0,5.862-3.444,6.705-4.909,6.705
					c-1.1,0-2.382-0.44-3.811-1.282c-1.429-0.843-2.711-1.905-3.847-3.114l0.146,4.69c0,0.477-0.257,0.732-0.732,0.732h-2.271
					c-0.477,0-0.733-0.256-0.733-0.732l0.11-14.472c0-0.477,0.256-0.732,0.732-0.732h3.554c1.686,0,3.114,0.439,4.25,1.356
					c1.136,0.879,1.722,1.978,1.722,3.261c0,2.161-1.795,3.956-4.286,4.396l0.659,0.513c1.832,1.429,3.261,2.161,4.25,2.161
					c1.025,0,1.575-0.732,1.575-3.188c0-3.113-0.806-5.568-2.454-7.4c-1.649-1.831-3.554-2.747-5.789-2.747
					c-2.308,0-4.25,0.989-5.898,2.967c-1.648,1.978-2.454,4.433-2.454,7.401c0,2.454,0.659,4.433,1.941,6.008
					c1.282,1.539,3.297,2.309,6.045,2.309c1.025,0,1.759-0.22,2.234-0.294c0.294-0.109,0.696-0.402,0.807-0.439
					c0.146-0.109,0.623-0.549,0.732-0.586c0.477-0.403,0.806-0.586,1.026-0.586c0.109,0,0.183,0.036,0.293,0.146l1.429,1.392
					c0.109,0.11,0.183,0.257,0.183,0.367c0,0.183-0.146,0.476-0.439,0.806c-1.429,1.795-3.663,2.675-6.631,2.675
					c-3.407,0-6.155-1.136-8.243-3.407c-2.052-2.272-3.077-5.093-3.077-8.5c0-3.7,1.172-6.851,3.517-9.489
					c2.345-2.638,5.166-3.956,8.5-3.956C222.586,67.973,225.37,69.255,227.677,71.782z M218.592,79.952
					c0.037,0.037,0.146,0.037,0.257,0.037c1.466,0,2.675-1.173,2.675-2.528c0-1.429-1.246-2.564-3.041-2.564L218.592,79.952z"/>
			</g>
		</g>
	</g>
</g>
<g id="_x2D_--temp">
</g>
</svg>
